<svg id="Globe_Ball" data-name="Globe/Ball" xmlns="http://www.w3.org/2000/svg" xmlns:xlink="http://www.w3.org/1999/xlink" viewBox="0 0 796.88 646.58"><defs><style>.cls-1{fill:#e4f53b;}.cls-2{fill:url(#linear-gradient);}.cls-3{fill:#2bace2;}.cls-4{fill:url(#linear-gradient-2);}.cls-5{fill:url(#linear-gradient-3);}.cls-6{fill:url(#linear-gradient-4);}</style><linearGradient id="linear-gradient" x1="747.21" y1="158.46" x2="170.58" y2="157.13" gradientUnits="userSpaceOnUse"><stop offset="0.06" stop-color="#2bace2"/><stop offset="0.19" stop-color="#2aa8de"/><stop offset="0.33" stop-color="#269bd2"/><stop offset="0.48" stop-color="#2087be"/><stop offset="0.62" stop-color="#176aa2"/><stop offset="0.76" stop-color="#0b457f"/><stop offset="0.88" stop-color="#00205c"/></linearGradient><linearGradient id="linear-gradient-2" x1="2066.79" y1="406.19" x2="2640.76" y2="408.19" gradientTransform="translate(2815.24 530.93) rotate(180)" gradientUnits="userSpaceOnUse"><stop offset="0.14" stop-color="#2bace2"/><stop offset="0.27" stop-color="#259ad0"/><stop offset="0.54" stop-color="#176aa2"/><stop offset="0.9" stop-color="#00205c"/></linearGradient><linearGradient id="linear-gradient-3" x1="747.18" y1="200.68" x2="170.56" y2="199.35" gradientTransform="translate(915.89 769.01) rotate(180)" xlink:href="#linear-gradient"/><linearGradient id="linear-gradient-4" x1="2066.79" y1="363.96" x2="2640.76" y2="365.96" gradientTransform="translate(-1899.35 238.08)" xlink:href="#linear-gradient-2"/></defs><title>ATPCup_Logo_Primary</title><path class="cls-1" d="M712.61,164.22a323.54,323.54,0,0,0-537.34,42.15c-39.07,70,82.22,113.15,282.68.15l.27-.15c155.51-87.74,256.18-47.1,282.4,0A322.83,322.83,0,0,0,712.61,164.22Z" transform="translate(-39.21 -40.09)"/><path class="cls-2" d="M740.62,206.37q-22.74-40.85,0,0a323.54,323.54,0,0,0-565.35,0c26.22-47.1,126.89-87.74,282.4,0l.28.15h0C658.4,319.52,779.69,276.33,740.62,206.37Z" transform="translate(-39.21 -40.09)"/><path class="cls-3" d="M483.44,373.84c.26-40.71,29.83-72.31,74.49-72.31,20.61,0,37.22,7,45.56,20.09l-16.24,13.57c-6.46-9.1-16.74-14.08-31-14.08-30.75,0-50.13,23.19-50.31,51.35-.13,19.93,12.84,33.15,37.4,33.15,13.39,0,25.1-4.46,34.27-13.91l13,14.08c-11.77,13.4-29.15,19.41-49.08,19.41C504.92,425.19,483.24,404.24,483.44,373.84Z" transform="translate(-39.21 -40.09)"/><path class="cls-3" d="M604.29,384a67.87,67.87,0,0,1,1.45-12.88l14-67.84h22.33l-14,67.5a65.46,65.46,0,0,0-1.27,10.64c-.1,16.32,9.46,24.22,26.47,24.22,19.06,0,30.64-10.48,35.77-35l13.84-67.32h22l-14.18,68.87c-7.27,35.38-27.48,53.07-59.77,53.07C621.37,425.19,604.12,409.39,604.29,384Z" transform="translate(-39.21 -40.09)"/><path class="cls-3" d="M836.09,339.49c-.2,30.74-22.3,49.29-57.68,49.29H749l-7.27,34.69H719.45l24.82-120.22h46.37C819.66,303.25,836.24,316.64,836.09,339.49Zm-22.51,2.06c.08-13.06-9.15-19.41-25.47-19.41H762.69l-9.75,47.75h26.45C801,369.89,813.46,360.1,813.58,341.55Z" transform="translate(-39.21 -40.09)"/><path class="cls-3" d="M185.93,300.1l26.42,126.51H174.17l-5.63-27.11H122.47l-16.24,27.11H64L81.53,399.5l-42.32,0,124.72-22.6L160,358.64h0l-3.3-16.34-6.93,11.57,8,2.93-48.62,0,36.64-56.67Zm238.76,0H332.38a4.37,4.37,0,0,1,.85,1.34,13.63,13.63,0,0,1,.7,3.16c.31,1.85.68,2.12.46,3.54-.43,2.73-.93,2.47-1.77,4.08a22.11,22.11,0,0,0-1.53,4,.11.11,0,0,0,.12.13c.3,0,.92.06.94,1,0,1.23-1.38,3.62-1.78,4.3a8.24,8.24,0,0,1-2.06,2.54c-1.32.77-1.73.33-1.92.72s-1.51,2.86-1.71,3.54a12.89,12.89,0,0,0-.42,2.65.28.28,0,0,0,.18.28c2.64,1,9.54,3.48,11.2,6.3l-23.32,7.57c3.26-.39,6.84-.83,10-1.19,4.34-.5,11.37-1.28,13.63-1.26a42.68,42.68,0,0,1,5.81.7c2.74.37,5.17.46,8.13,1.06a8.36,8.36,0,0,1,4.33,2c.12.08.71.57.71.57,3.6-.26,9.16-.61,10.35-.71.6-.05,1.83-.11,2.07-.14,11.22-1.43,17.37-6.8,22.73-10.07,5.93-3.61,14.84-6.56,21.22-6.73,8.24-.22,14.17,1.18,18.12,4.77s5.49,8.35,3.9,15.52c-1.53,6.91-3.74,10.1-8.83,13.27s-10.74,4.19-17.38,3.58c-11.08-1-21-7.94-24.89-10.19A32.73,32.73,0,0,0,369.05,352a21.77,21.77,0,0,0-3.05,0l-7.26.52a7.18,7.18,0,0,1,.36,2c-.08,1.36-.83,2-1.66,1.9a6.17,6.17,0,0,1-3.22-2.69c-.05-.11-.22-.17-.22,0s0,.43,0,.63c0,.37-.26,1.5-1.06,1.73a2.94,2.94,0,0,1-2.45-.58.39.39,0,0,0-.63.18c-.29.82-.46,1.31-2,1-1.06-.11-.84.31-1.52.44-1.66.31-2.46-.57-3.78-1.18s-.88-1.85-2.18-2.08l-.94-.15a59.23,59.23,0,0,1,2.08,9.49.24.24,0,0,1-.2.26l-1.33.16a.2.2,0,0,0-.19.25,70.4,70.4,0,0,1,1.35,7.3,30.47,30.47,0,0,1,0,7.58.21.21,0,0,0,.25.25,4.37,4.37,0,0,0,1.54-.6,8.62,8.62,0,0,1,.49-2.46,5.66,5.66,0,0,1,.43-.54,1.1,1.1,0,0,0,.24-.42l.35-1.22a2.66,2.66,0,0,1,.21-.53l1.83-3.29s.43-.9,1.17-.7a2.33,2.33,0,0,1,1.18,1.92,7.5,7.5,0,0,1-.87,2.79l.78,1.25a3.28,3.28,0,0,0,2.76-.54,13,13,0,0,0,1.17-.87c-.34-.92.47-2.09,2.69-1.67.77.33,2.94,2.05.23,3.84a.12.12,0,0,0,.07.22c3-.18,2.59,3.4.58,4.48a.34.34,0,0,0-.1.49,3.08,3.08,0,0,1,.68,1.92s0,.94-2.87,1.92c0,0-.88.36-.53,1,.35.13.73.26,1.18.4,0,0,2.61.6,2.1,2,0,0-.42,1.22-2.9.41a13.11,13.11,0,0,1-2.44-.08,34,34,0,0,1-4.71,1.18,2.36,2.36,0,0,0-1.33.79l0,0c-1.6,1.84-6.49,4.37-8.67,4.39-2.43,0-2.74-1.84-4.51-3.7-3.43-3.59-4-8.08-4.53-12.52a.25.25,0,0,0-.5,0c-.62,5.22-.92,9.92-3.81,12.49-1.77,1.58-4.53,2.81-9,3.87-17,4-35.28,14.46-33.21,16.84.82.93,2.74-.94,6.1-2.48,12.67-5.83,29.07-7,34.35-6.57a.79.79,0,0,1,.72.72,22.9,22.9,0,0,0,.81,3.74c.46,1.63,1,4.55,2.72,6.17,3.16,2.95,2.72,4.05,2,8-.48,2.59,3.06,4.74,3.15,4.84h36.55L373,399.5h37.1c37.91,0,54.76-17.31,61.19-50.46C474.32,333.63,474.23,300.1,424.69,300.1ZM261.75,426.61c.51-.56,1.1-1.19,1.8-1.91,1.59-1.63.35-5.78.66-7.37.4-2.09,4-3.19,4.57-5.24.77-2.78-4.73-2.3-2.11-5.24,1.64-1.84,4-1.2,3.88-3-.27-2.93,2.6-4.93,3.81-5.84,5.24-4,17-10.27,24.14-12.34,7.48-2.18-2.82-2-11.35,1.14-7.74,2.84,10-8.29,24.08-11.81,10-2.52-7.36-3-23.36,4a74.51,74.51,0,0,0-10,4.93.1.1,0,0,1-.14-.12c.79-1.62,2.46-4.4,2-7.26a8.92,8.92,0,0,1,.65-5.41c.61-1.14.24-4.24.91-5.84a.27.27,0,0,1,.32-.14l8.6,2.69,33.61-11.44-32,4.74-11.11-9.49c-1.56-1.66-3.2-8.21-1.55-10.66a42.21,42.21,0,0,1,5.76-7c1.51-1.32,6.14-1.89,8.41-3,2.54-1.28,4.57-.41,6.39-.7a49.47,49.47,0,0,0,5.84-1.82.11.11,0,0,0,.08-.11,16.47,16.47,0,0,0-.19-2.22,22.13,22.13,0,0,1-.63-6.14c.2-2,1.93-3.74,2-5.07s-.88-2.68-.15-4a22.18,22.18,0,0,0,1.65-4.68c-.2-1.5-1.16-2-.46-3.58.36-.82,1-2,1.26-2.54H192.22l6.69,32.08H245l-5.08,24.62h34.73l-70.89,12.85,33.53-.07-11.75,57Zm123.43-73.27a1.22,1.22,0,0,0,1.71-1.2,24.08,24.08,0,0,1,1.29-7.2c.28-1-.59-1.85-1.46-1.38A44,44,0,0,1,375.56,348a.88.88,0,0,0-.66.81.74.74,0,0,0,.5.77A44.26,44.26,0,0,1,385.18,353.34Z" transform="translate(-39.21 -40.09)"/><path class="cls-3" d="M444.75,421.32h-2.09l.25-1.23h5.69l-.26,1.23h-2.07l-1.07,5.29h-1.51Zm12-1.23-1.29,6.52H454l.76-3.88-2.49,3.19h-.67l-1.34-3.23-.78,3.92H448.1l1.31-6.52h1.23l1.63,4.06,3.19-4.06Z" transform="translate(-39.21 -40.09)"/><path class="cls-4" d="M175.27,206.37c26.22-47.1,126.89-87.74,282.4,0l.28.15.27-.15c155.51-87.74,256.18-47.1,282.4,0a323.54,323.54,0,0,0-565.35,0Z" transform="translate(-39.21 -40.09)"/><path class="cls-1" d="M203.28,562.55a323.56,323.56,0,0,0,537.34-42.14c39.07-70-82.22-113.15-282.67-.16l-.28.15c-155.51,87.75-256.18,47.1-282.4,0A323.4,323.4,0,0,0,203.28,562.55Z" transform="translate(-39.21 -40.09)"/><path class="cls-5" d="M175.27,520.41h0a323.57,323.57,0,0,0,565.35,0c-26.22,47.09-126.89,87.74-282.4,0l-.27-.15h0C257.49,407.26,136.2,450.45,175.27,520.41Z" transform="translate(-39.21 -40.09)"/><path class="cls-6" d="M740.62,520.41c-26.22,47.09-126.89,87.74-282.4,0l-.27-.15-.28.15c-155.51,87.75-256.18,47.1-282.4,0a323.57,323.57,0,0,0,565.35,0Z" transform="translate(-39.21 -40.09)"/></svg>