<svg xmlns="http://www.w3.org/2000/svg" xmlns:xlink="http://www.w3.org/1999/xlink" viewBox="0 0 841.89 218.73"><defs><style>.cls-1{clip-path:url(#clip-path);}.cls-2{clip-path:url(#clip-path-2);}.cls-3{fill:#ee222e;}</style><clipPath id="clip-path"><path d="M252.47,169.55l10.1,48.37H248l-2.15-10.37H228.2L222,217.92H205.85l6.7-10.37H196.37l47.69-8.64-1.5-7h0l-1.26-6.24-2.65,4.42,3.06,1.12H223.12l14-21.67Zm91.28,0H308.46a2,2,0,0,1,.32.51,5.17,5.17,0,0,1,.27,1.21c.12.71.26.81.17,1.35-.16,1-.35.95-.67,1.56a8.49,8.49,0,0,0-.59,1.55,0,0,0,0,0,.05.05c.11,0,.35,0,.36.38a4.69,4.69,0,0,1-.68,1.65,3.34,3.34,0,0,1-.79,1c-.51.29-.66.12-.73.27s-.58,1.1-.66,1.35a5.52,5.52,0,0,0-.16,1,.1.1,0,0,0,.07.1c1,.4,3.65,1.34,4.28,2.41l-8.92,2.9,3.83-.46c1.67-.19,4.35-.49,5.22-.48a17,17,0,0,1,2.22.27c1.05.14,2,.18,3.11.4a3.1,3.1,0,0,1,1.65.78l.27.21,4-.27.79-.05c4.29-.55,6.64-2.6,8.69-3.85a18.66,18.66,0,0,1,8.11-2.57c3.16-.09,5.42.45,6.93,1.82s2.1,3.19,1.49,5.93-1.42,3.86-3.37,5.08A10.26,10.26,0,0,1,337,195c-4.23-.38-8-3-9.51-3.89a12.64,12.64,0,0,0-5-1.7,7.35,7.35,0,0,0-1.16,0l-2.78.2a2.86,2.86,0,0,1,.14.75c0,.52-.32.77-.64.73a2.37,2.37,0,0,1-1.22-1s-.09-.06-.09,0a1.92,1.92,0,0,1,0,.24c0,.14-.1.58-.41.66a1.08,1.08,0,0,1-.93-.22.15.15,0,0,0-.24.07c-.11.31-.18.5-.77.38-.41,0-.33.12-.59.17-.63.12-.94-.22-1.44-.45s-.34-.71-.83-.8l-.36-.05a23.6,23.6,0,0,1,.79,3.62.08.08,0,0,1-.07.1l-.51.06a.09.09,0,0,0-.08.1,26.48,26.48,0,0,1,.52,2.79,12.21,12.21,0,0,1,0,2.9c0,.06,0,.11.09.09a1.48,1.48,0,0,0,.59-.23,3.7,3.7,0,0,1,.19-.94,1.56,1.56,0,0,1,.16-.2.37.37,0,0,0,.09-.16l.14-.47a.7.7,0,0,1,.08-.2l.7-1.26s.16-.34.45-.27a.89.89,0,0,1,.45.74,2.83,2.83,0,0,1-.34,1.07l.3.47a1.23,1.23,0,0,0,1.06-.21,4.73,4.73,0,0,0,.45-.33c-.13-.35.18-.8,1-.63.3.12,1.13.78.09,1.46a0,0,0,0,0,0,.09c1.13-.07,1,1.3.22,1.71a.13.13,0,0,0,0,.19,1.15,1.15,0,0,1,.26.73s0,.36-1.1.74c0,0-.33.13-.2.38l.45.16s1,.22.8.77c0,0-.16.47-1.1.16a4.54,4.54,0,0,1-.93,0,12.7,12.7,0,0,1-1.81.45.93.93,0,0,0-.51.3h0a6.55,6.55,0,0,1-3.32,1.68c-.93,0-1-.71-1.72-1.41-1.31-1.38-1.54-3.09-1.74-4.79a.1.1,0,0,0-.19,0c-.23,2-.35,3.79-1.45,4.77a7.67,7.67,0,0,1-3.45,1.48c-6.49,1.54-13.48,5.53-12.69,6.44.31.36,1-.36,2.33-1a32.06,32.06,0,0,1,13.13-2.51.31.31,0,0,1,.28.27,8.12,8.12,0,0,0,.31,1.43,4.88,4.88,0,0,0,1,2.36c1.2,1.13,1,1.55.75,3.07-.18,1,1.17,1.81,1.21,1.85h14L324,207.55h14.18c14.5,0,20.94-6.61,23.4-19.29C362.72,182.37,362.69,169.55,343.75,169.55Zm-62.3,48.37c.2-.22.42-.46.69-.73.61-.63.13-2.21.25-2.82.16-.8,1.54-1.22,1.75-2,.29-1.07-1.81-.88-.8-2,.62-.7,1.54-.46,1.48-1.15-.11-1.12,1-1.88,1.45-2.23a37,37,0,0,1,9.23-4.72c2.86-.83-1.08-.76-4.34.44-3,1.08,3.83-3.17,9.21-4.52,3.83-1-2.81-1.15-8.93,1.54a27.94,27.94,0,0,0-3.81,1.89,0,0,0,0,1-.05-.05,4.7,4.7,0,0,0,.75-2.78,3.44,3.44,0,0,1,.25-2.06c.23-.44.09-1.62.35-2.23a.1.1,0,0,1,.12-.06l3.29,1,12.85-4.37L293,192.9l-4.24-3.63c-.6-.63-1.23-3.14-.6-4.07a17.14,17.14,0,0,1,2.2-2.7c.58-.5,2.35-.72,3.22-1.16s1.75-.16,2.44-.27a19.27,19.27,0,0,0,2.24-.69s0,0,0,0a7.48,7.48,0,0,0-.08-.85,8.84,8.84,0,0,1-.24-2.35c.08-.76.74-1.43.77-1.94s-.33-1-.05-1.52a8.8,8.8,0,0,0,.63-1.79c-.08-.57-.44-.78-.18-1.37.14-.31.38-.75.48-1h-44.7l2.56,12.26H275l-1.94,9.42h13.28l-27.1,4.91,12.82,0-4.49,21.8Zm47.19-28a.48.48,0,0,0,.66-.46,9.12,9.12,0,0,1,.49-2.76c.1-.39-.23-.7-.56-.52a16.92,16.92,0,0,1-4.27,1.7.34.34,0,0,0-.25.31.28.28,0,0,0,.19.29A17.29,17.29,0,0,1,328.64,189.91Z"/></clipPath><clipPath id="clip-path-2"><path d="M356.22,215.89h-.8l.1-.47h2.17l-.09.47h-.8l-.4,2h-.58Zm4.59-.47-.49,2.5h-.55l.3-1.49-.95,1.22h-.26l-.51-1.23-.3,1.5h-.55l.5-2.5h.47l.63,1.56,1.22-1.56Z"/></clipPath></defs><title>ATP_NextGen_Stacked_LightBG</title><g id="Layer_1" data-name="Layer 1"><path d="M252.47,169.55l10.1,48.37H248l-2.15-10.37H228.2L222,217.92H205.85l6.7-10.37H196.37l47.69-8.64-1.5-7h0l-1.26-6.24-2.65,4.42,3.06,1.12H223.12l14-21.67Zm91.28,0H308.46a2,2,0,0,1,.32.51,5.17,5.17,0,0,1,.27,1.21c.12.71.26.81.17,1.35-.16,1-.35.95-.67,1.56a8.49,8.49,0,0,0-.59,1.55,0,0,0,0,0,.05.05c.11,0,.35,0,.36.38a4.69,4.69,0,0,1-.68,1.65,3.34,3.34,0,0,1-.79,1c-.51.29-.66.12-.73.27s-.58,1.1-.66,1.35a5.52,5.52,0,0,0-.16,1,.1.1,0,0,0,.07.1c1,.4,3.65,1.34,4.28,2.41l-8.92,2.9,3.83-.46c1.67-.19,4.35-.49,5.22-.48a17,17,0,0,1,2.22.27c1.05.14,2,.18,3.11.4a3.1,3.1,0,0,1,1.65.78l.27.21,4-.27.79-.05c4.29-.55,6.64-2.6,8.69-3.85a18.66,18.66,0,0,1,8.11-2.57c3.16-.09,5.42.45,6.93,1.82s2.1,3.19,1.49,5.93-1.42,3.86-3.37,5.08A10.26,10.26,0,0,1,337,195c-4.23-.38-8-3-9.51-3.89a12.64,12.64,0,0,0-5-1.7,7.35,7.35,0,0,0-1.16,0l-2.78.2a2.86,2.86,0,0,1,.14.75c0,.52-.32.77-.64.73a2.37,2.37,0,0,1-1.22-1s-.09-.06-.09,0a1.92,1.92,0,0,1,0,.24c0,.14-.1.58-.41.66a1.08,1.08,0,0,1-.93-.22.15.15,0,0,0-.24.07c-.11.31-.18.5-.77.38-.41,0-.33.12-.59.17-.63.12-.94-.22-1.44-.45s-.34-.71-.83-.8l-.36-.05a23.6,23.6,0,0,1,.79,3.62.08.08,0,0,1-.07.1l-.51.06a.09.09,0,0,0-.08.1,26.48,26.48,0,0,1,.52,2.79,12.21,12.21,0,0,1,0,2.9c0,.06,0,.11.09.09a1.48,1.48,0,0,0,.59-.23,3.7,3.7,0,0,1,.19-.94,1.56,1.56,0,0,1,.16-.2.37.37,0,0,0,.09-.16l.14-.47a.7.7,0,0,1,.08-.2l.7-1.26s.16-.34.45-.27a.89.89,0,0,1,.45.74,2.83,2.83,0,0,1-.34,1.07l.3.47a1.23,1.23,0,0,0,1.06-.21,4.73,4.73,0,0,0,.45-.33c-.13-.35.18-.8,1-.63.3.12,1.13.78.09,1.46a0,0,0,0,0,0,.09c1.13-.07,1,1.3.22,1.71a.13.13,0,0,0,0,.19,1.15,1.15,0,0,1,.26.73s0,.36-1.1.74c0,0-.33.13-.2.38l.45.16s1,.22.8.77c0,0-.16.47-1.1.16a4.54,4.54,0,0,1-.93,0,12.7,12.7,0,0,1-1.81.45.93.93,0,0,0-.51.3h0a6.55,6.55,0,0,1-3.32,1.68c-.93,0-1-.71-1.72-1.41-1.31-1.38-1.54-3.09-1.74-4.79a.1.1,0,0,0-.19,0c-.23,2-.35,3.79-1.45,4.77a7.67,7.67,0,0,1-3.45,1.48c-6.49,1.54-13.48,5.53-12.69,6.44.31.36,1-.36,2.33-1a32.06,32.06,0,0,1,13.13-2.51.31.31,0,0,1,.28.27,8.12,8.12,0,0,0,.31,1.43,4.88,4.88,0,0,0,1,2.36c1.2,1.13,1,1.55.75,3.07-.18,1,1.17,1.81,1.21,1.85h14L324,207.55h14.18c14.5,0,20.94-6.61,23.4-19.29C362.72,182.37,362.69,169.55,343.75,169.55Zm-62.3,48.37c.2-.22.42-.46.69-.73.61-.63.13-2.21.25-2.82.16-.8,1.54-1.22,1.75-2,.29-1.07-1.81-.88-.8-2,.62-.7,1.54-.46,1.48-1.15-.11-1.12,1-1.88,1.45-2.23a37,37,0,0,1,9.23-4.72c2.86-.83-1.08-.76-4.34.44-3,1.08,3.83-3.17,9.21-4.52,3.83-1-2.81-1.15-8.93,1.54a27.94,27.94,0,0,0-3.81,1.89,0,0,0,0,1-.05-.05,4.7,4.7,0,0,0,.75-2.78,3.44,3.44,0,0,1,.25-2.06c.23-.44.09-1.62.35-2.23a.1.1,0,0,1,.12-.06l3.29,1,12.85-4.37L293,192.9l-4.24-3.63c-.6-.63-1.23-3.14-.6-4.07a17.14,17.14,0,0,1,2.2-2.7c.58-.5,2.35-.72,3.22-1.16s1.75-.16,2.44-.27a19.27,19.27,0,0,0,2.24-.69s0,0,0,0a7.48,7.48,0,0,0-.08-.85,8.84,8.84,0,0,1-.24-2.35c.08-.76.74-1.43.77-1.94s-.33-1-.05-1.52a8.8,8.8,0,0,0,.63-1.79c-.08-.57-.44-.78-.18-1.37.14-.31.38-.75.48-1h-44.7l2.56,12.26H275l-1.94,9.42h13.28l-27.1,4.91,12.82,0-4.49,21.8Zm47.19-28a.48.48,0,0,0,.66-.46,9.12,9.12,0,0,1,.49-2.76c.1-.39-.23-.7-.56-.52a16.92,16.92,0,0,1-4.27,1.7.34.34,0,0,0-.25.31.28.28,0,0,0,.19.29A17.29,17.29,0,0,1,328.64,189.91Z"/><g class="cls-1"><rect x="194.41" y="164.7" width="171.45" height="53.22"/></g><path d="M356.22,215.89h-.8l.1-.47h2.17l-.09.47h-.8l-.4,2h-.58Zm4.59-.47-.49,2.5h-.55l.3-1.49-.95,1.22h-.26l-.51-1.23-.3,1.5h-.55l.5-2.5h.47l.63,1.56,1.22-1.56Z"/><g class="cls-2"><rect x="353.68" y="213.77" width="7.35" height="4.92"/></g><polygon points="0 0 0 186.33 190.11 186.33 193.56 169.6 16.73 169.6 16.73 16.73 825.15 16.73 825.15 169.6 651.77 169.6 648.33 186.33 841.89 186.33 841.89 0 0 0"/><path d="M394.11,177,391,191.79h23.57l-1.6,7.64h-23.5L385.51,218h-9l10.19-48.61H422.2L420.6,177Zm34.07-7.57h9L427,218h-9Zm59.8,0L477.78,218h-7.44l-19.63-34-7.14,34h-9l10.2-48.61h7.44l19.7,34,7.07-34Zm34.55,37.36H498.05L490.92,218h-9.66l32.1-48.61h9L534,218h-9Zm-1.61-7.08-4.73-21.39-13.62,21.39Zm26.72-30.28h9l-8.59,41h25.45l-1.6,7.64H537.44Zm34.86,47.71a22.36,22.36,0,0,1-8-4.1l3.89-7.08a23.5,23.5,0,0,0,7.23,3.85,26.42,26.42,0,0,0,8.57,1.42,17,17,0,0,0,8.54-1.84,5.67,5.67,0,0,0,3.21-5,4,4,0,0,0-1.26-3,9.89,9.89,0,0,0-3.18-2q-1.9-.77-5.3-1.74a62.83,62.83,0,0,1-7.63-2.67,13.25,13.25,0,0,1-5-3.85,10.24,10.24,0,0,1-2-6.67,13.45,13.45,0,0,1,2.76-8.27,17.43,17.43,0,0,1,7.53-5.48,29.31,29.31,0,0,1,11.07-2,36.12,36.12,0,0,1,9,1.08,25,25,0,0,1,7.27,3L615.54,180a21.64,21.64,0,0,0-6.1-2.77,25.49,25.49,0,0,0-7.08-1,16.17,16.17,0,0,0-8.6,2,6,6,0,0,0-3.22,5.25,4.08,4.08,0,0,0,1.29,3.12,9.48,9.48,0,0,0,3.18,2c1.25.49,3.07,1.1,5.48,1.84A65.92,65.92,0,0,1,608,193a13,13,0,0,1,4.94,3.68,9.43,9.43,0,0,1,2,6.32,13.52,13.52,0,0,1-2.76,8.33,17.36,17.36,0,0,1-7.63,5.49,30.36,30.36,0,0,1-11.25,1.94A36.15,36.15,0,0,1,582.5,217.14Z"/><path d="M601.88,82.22h79.24l-4.22,21.07H597.66M605.52,64h79.25l4.13-21.08H609.74M594,121.52l-4.36,21.79,79.18.32,4.42-22.11Z"/><path d="M169.23,82h81.88l-4.35,21.78H164.87M173,63.21h81.88l4.27-21.78h-81.8m-16.24,81.23-4.51,22.52,81.82.32L243,122.66Z"/><polygon points="771.61 43.62 763.01 86.96 773.98 119.13 760.79 98.15 760.79 98.17 757.27 92.34 752.5 84.5 752.51 84.5 727.75 43.62 704.54 43.62 684.6 143.31 712.23 143.31 723.19 88.62 756.09 143.31 779.3 143.31 799.24 43.62 771.61 43.62"/><path d="M347.75,43.62"/><polygon points="378.81 41.63 374.07 64.88 405.91 64.88 389.77 145.3 419.1 145.3 434.27 69.72 411.5 64.89 435.24 64.89 435.24 64.88 466.93 64.88 471.67 41.63 378.81 41.63"/><polygon points="338.97 41.63 317.92 65.4 329.8 87.86 372.06 41.63 338.97 41.63"/><polygon points="321.38 145.3 308.9 120.57 327.91 99.01 352.97 145.3 321.38 145.3"/><path d="M555.16,113.17l10.45,0c-6,4.14-10.8,6.28-14.81,7.39h0a33.07,33.07,0,0,1-6.29,1.16c-1.26.12-2.55.2-3.88.2q-12.11,0-18.8-6t-6.69-16.31a37.51,37.51,0,0,1,4.13-17.8A30.56,30.56,0,0,1,531,69.47,34.25,34.25,0,0,1,548.75,65a35,35,0,0,1,13.81,2.5A28.05,28.05,0,0,1,573.24,76l20.22-16Q579.65,41.63,550,41.63q-18.66,0-33,7.69a55.89,55.89,0,0,0-22.36,21.29,59.77,59.77,0,0,0-8,30.83,42.53,42.53,0,0,0,6.2,22.93,41.14,41.14,0,0,0,17.52,15.45q11.31,5.48,26.41,5.48a74.14,74.14,0,0,0,21.44-3.06,55.76,55.76,0,0,0,17.87-8.9l8.4-42H559.57Z"/><polygon class="cls-3" points="324.74 93.32 278.2 145.5 242.97 145.5 308.49 76.3 289.32 85.73 265.86 41.43 297.23 41.43 324.74 93.32"/><polygon points="134.29 41.64 125.35 86.7 136.48 119.7 123.04 98.34 123.04 98.35 119.37 92.3 114.42 84.15 114.43 84.14 88.68 41.64 64.54 41.64 43.81 145.3 72.54 145.3 83.94 88.43 118.15 145.3 142.29 145.3 163.02 41.64 134.29 41.64"/></g></svg>